<svg id="visual" viewBox="0 0 900 400" width="900" height="400" xmlns="http://www.w3.org/2000/svg" xmlns:xlink="http://www.w3.org/1999/xlink" version="1.1"><rect x="0" y="0" width="900" height="400" fill="#212529"></rect><defs><linearGradient id="grad1_0" x1="55.6%" y1="100%" x2="100%" y2="0%"><stop offset="5%" stop-color="#3f7e8c" stop-opacity="1"></stop><stop offset="95%" stop-color="#3f7e8c" stop-opacity="1"></stop></linearGradient></defs><defs><linearGradient id="grad1_1" x1="55.6%" y1="100%" x2="100%" y2="0%"><stop offset="5%" stop-color="#3f7e8c" stop-opacity="1"></stop><stop offset="95%" stop-color="#344f5b" stop-opacity="1"></stop></linearGradient></defs><defs><linearGradient id="grad1_2" x1="55.6%" y1="100%" x2="100%" y2="0%"><stop offset="5%" stop-color="#212529" stop-opacity="1"></stop><stop offset="95%" stop-color="#344f5b" stop-opacity="1"></stop></linearGradient></defs><defs><linearGradient id="grad2_0" x1="0%" y1="100%" x2="44.4%" y2="0%"><stop offset="5%" stop-color="#3f7e8c" stop-opacity="1"></stop><stop offset="95%" stop-color="#3f7e8c" stop-opacity="1"></stop></linearGradient></defs><defs><linearGradient id="grad2_1" x1="0%" y1="100%" x2="44.4%" y2="0%"><stop offset="5%" stop-color="#344f5b" stop-opacity="1"></stop><stop offset="95%" stop-color="#3f7e8c" stop-opacity="1"></stop></linearGradient></defs><defs><linearGradient id="grad2_2" x1="0%" y1="100%" x2="44.4%" y2="0%"><stop offset="5%" stop-color="#344f5b" stop-opacity="1"></stop><stop offset="95%" stop-color="#212529" stop-opacity="1"></stop></linearGradient></defs><g transform="translate(900, 400)"><path d="M-360 0C-359.1 -50.7 -358.3 -101.5 -332.6 -137.8C-306.9 -174 -256.4 -195.9 -217.8 -217.8C-179.2 -239.7 -152.6 -261.8 -118.2 -285.5C-83.9 -309.2 -42 -334.6 0 -360L0 0Z" fill="#2c3942"></path><path d="M-240 0C-239.4 -33.8 -238.9 -67.7 -221.7 -91.8C-204.6 -116 -170.9 -130.6 -145.2 -145.2C-119.5 -159.8 -101.7 -174.5 -78.8 -190.3C-56 -206.1 -28 -223.1 0 -240L0 0Z" fill="#3a6674"></path><path d="M-120 0C-119.7 -16.9 -119.4 -33.8 -110.9 -45.9C-102.3 -58 -85.5 -65.3 -72.6 -72.6C-59.7 -79.9 -50.9 -87.3 -39.4 -95.2C-28 -103.1 -14 -111.5 0 -120L0 0Z" fill="#3f7e8c"></path></g><g transform="translate(0, 0)"><path d="M360 0C343.7 43.6 327.5 87.1 309.5 128.2C291.5 169.3 271.9 207.9 244 244C216 280.1 179.8 313.7 137.8 332.6C95.7 351.5 47.9 355.8 0 360L0 0Z" fill="#2c3942"></path><path d="M240 0C229.2 29 218.3 58.1 206.3 85.5C194.4 112.8 181.3 138.6 162.6 162.6C144 186.7 119.9 209.1 91.8 221.7C63.8 234.3 31.9 237.2 0 240L0 0Z" fill="#3a6674"></path><path d="M120 0C114.6 14.5 109.2 29 103.2 42.7C97.2 56.4 90.6 69.3 81.3 81.3C72 93.4 59.9 104.6 45.9 110.9C31.9 117.2 16 118.6 0 120L0 0Z" fill="#3f7e8c"></path></g></svg>