<svg id="visual" viewBox="0 0 900 400" width="900" height="400" xmlns="http://www.w3.org/2000/svg" xmlns:xlink="http://www.w3.org/1999/xlink" version="1.1"><path d="M0 33L13.7 32.3C27.3 31.7 54.7 30.3 82 34.3C109.3 38.3 136.7 47.7 163.8 55C191 62.3 218 67.7 245.2 65.7C272.3 63.7 299.7 54.3 327 48.3C354.3 42.3 381.7 39.7 409 46.3C436.3 53 463.7 69 491 71C518.3 73 545.7 61 573 59C600.3 57 627.7 65 654.8 65.7C682 66.3 709 59.7 736.2 53C763.3 46.3 790.7 39.7 818 40.3C845.3 41 872.7 49 886.3 53L900 57L900 0L886.3 0C872.7 0 845.3 0 818 0C790.7 0 763.3 0 736.2 0C709 0 682 0 654.8 0C627.7 0 600.3 0 573 0C545.7 0 518.3 0 491 0C463.7 0 436.3 0 409 0C381.7 0 354.3 0 327 0C299.7 0 272.3 0 245.2 0C218 0 191 0 163.8 0C136.7 0 109.3 0 82 0C54.7 0 27.3 0 13.7 0L0 0Z" fill="#54b5bf"></path><path d="M0 85L13.7 91.7C27.3 98.3 54.7 111.7 82 118.3C109.3 125 136.7 125 163.8 131C191 137 218 149 245.2 143.7C272.3 138.3 299.7 115.7 327 108.3C354.3 101 381.7 109 409 122.3C436.3 135.7 463.7 154.3 491 158.3C518.3 162.3 545.7 151.7 573 146.3C600.3 141 627.7 141 654.8 141.7C682 142.3 709 143.7 736.2 139.7C763.3 135.7 790.7 126.3 818 123.7C845.3 121 872.7 125 886.3 127L900 129L900 55L886.3 51C872.7 47 845.3 39 818 38.3C790.7 37.7 763.3 44.3 736.2 51C709 57.7 682 64.3 654.8 63.7C627.7 63 600.3 55 573 57C545.7 59 518.3 71 491 69C463.7 67 436.3 51 409 44.3C381.7 37.7 354.3 40.3 327 46.3C299.7 52.3 272.3 61.7 245.2 63.7C218 65.7 191 60.3 163.8 53C136.7 45.7 109.3 36.3 82 32.3C54.7 28.3 27.3 29.7 13.7 30.3L0 31Z" fill="#498d9d"></path><path d="M0 153L13.7 162.3C27.3 171.7 54.7 190.3 82 196.3C109.3 202.3 136.7 195.7 163.8 195.7C191 195.7 218 202.3 245.2 213.7C272.3 225 299.7 241 327 245.7C354.3 250.3 381.7 243.7 409 249.7C436.3 255.7 463.7 274.3 491 269C518.3 263.7 545.7 234.3 573 225C600.3 215.7 627.7 226.3 654.8 233C682 239.7 709 242.3 736.2 251C763.3 259.7 790.7 274.3 818 270.3C845.3 266.3 872.7 243.7 886.3 232.3L900 221L900 127L886.3 125C872.7 123 845.3 119 818 121.7C790.7 124.3 763.3 133.7 736.2 137.7C709 141.7 682 140.3 654.8 139.7C627.7 139 600.3 139 573 144.3C545.7 149.7 518.3 160.3 491 156.3C463.7 152.3 436.3 133.7 409 120.3C381.7 107 354.3 99 327 106.3C299.7 113.7 272.3 136.3 245.2 141.7C218 147 191 135 163.8 129C136.7 123 109.3 123 82 116.3C54.7 109.7 27.3 96.3 13.7 89.7L0 83Z" fill="#3f6777"></path><path d="M0 341L13.7 340.3C27.3 339.7 54.7 338.3 82 339C109.3 339.7 136.7 342.3 163.8 344.3C191 346.3 218 347.7 245.2 345.7C272.3 343.7 299.7 338.3 327 335.7C354.3 333 381.7 333 409 337.7C436.3 342.3 463.7 351.7 491 358.3C518.3 365 545.7 369 573 367C600.3 365 627.7 357 654.8 356.3C682 355.7 709 362.3 736.2 365C763.3 367.7 790.7 366.3 818 363C845.3 359.7 872.7 354.3 886.3 351.7L900 349L900 219L886.3 230.3C872.7 241.7 845.3 264.3 818 268.3C790.7 272.3 763.3 257.7 736.2 249C709 240.3 682 237.7 654.8 231C627.7 224.3 600.3 213.7 573 223C545.7 232.3 518.3 261.7 491 267C463.7 272.3 436.3 253.7 409 247.7C381.7 241.7 354.3 248.3 327 243.7C299.7 239 272.3 223 245.2 211.7C218 200.3 191 193.7 163.8 193.7C136.7 193.7 109.3 200.3 82 194.3C54.7 188.3 27.3 169.7 13.7 160.3L0 151Z" fill="#32444f"></path><path d="M0 401L13.7 401C27.3 401 54.7 401 82 401C109.3 401 136.7 401 163.8 401C191 401 218 401 245.2 401C272.3 401 299.7 401 327 401C354.3 401 381.7 401 409 401C436.3 401 463.7 401 491 401C518.3 401 545.7 401 573 401C600.3 401 627.7 401 654.8 401C682 401 709 401 736.2 401C763.3 401 790.7 401 818 401C845.3 401 872.7 401 886.3 401L900 401L900 347L886.3 349.7C872.7 352.3 845.3 357.7 818 361C790.7 364.3 763.3 365.7 736.2 363C709 360.3 682 353.7 654.8 354.3C627.7 355 600.3 363 573 365C545.7 367 518.3 363 491 356.3C463.7 349.7 436.3 340.3 409 335.7C381.7 331 354.3 331 327 333.7C299.7 336.3 272.3 341.7 245.2 343.7C218 345.7 191 344.3 163.8 342.3C136.7 340.3 109.3 337.7 82 337C54.7 336.3 27.3 337.7 13.7 338.3L0 339Z" fill="#212529"></path></svg>